REM DIRINDEX 1\2,1\3,1\4,1\5
REM DIRNAME cjc006,folder01,folder02,folder03,folder04
TITLE ""
FILE "No02114.mp3" MP3
  TRACK 01 AUDIO
    TITLE "3:cjc006_02919"
    INDEX 01 00:00:00
  TRACK 02 AUDIO
    TITLE "0:"
    INDEX 01 00:03:02
  TRACK 03 AUDIO
    TITLE "5:cjc006_02920"
    INDEX 01 00:03:74
  TRACK 04 AUDIO
    TITLE "0:"
    INDEX 01 00:04:72
  TRACK 05 AUDIO
    TITLE "4:cjc006_02921"
    INDEX 01 00:05:59
  TRACK 06 AUDIO
    TITLE "0:"
    INDEX 01 00:08:72
